<svg xmlns="http://www.w3.org/2000/svg" width="126" height="126"><circle cx="63" cy="63" r="63" fill="#4A90E2"/><defs><filter id="a" width="148" height="138" x="-1" y="7" filterUnits="userSpaceOnUse"><feColorMatrix values="1 0 0 0 0 0 1 0 0 0 0 0 1 0 0 0 0 0 1 0"/></filter></defs><mask id="b" width="148" height="138" x="-1" y="7" maskUnits="userSpaceOnUse"><circle cx="63" cy="63" r="63" fill="#FFF" filter="url(#a)"/></mask><g mask="url(#b)"><path fill="#6F4A80" d="M110.71 104.36c.11-2.38.2-4.77.32-7.15 3-.32 5.93-1.1 8.7-2.3A28.66 28.66 0 0 0 137.08 69a28.1 28.1 0 0 1 2.96 7.06c4.1 15.31-5.25 30.99-20.88 35a29.76 29.76 0 0 1-9.16.9c.52-2.44.6-4.99.71-7.6"/><path fill="none" stroke="#4B3663" stroke-linecap="round" stroke-linejoin="round" stroke-width="2" d="M110.71 104.36c.11-2.38.2-4.77.32-7.15 3-.32 5.93-1.1 8.7-2.3A28.66 28.66 0 0 0 137.08 69a28.1 28.1 0 0 1 2.96 7.06c4.1 15.31-5.25 30.99-20.88 35a29.76 29.76 0 0 1-9.16.9c.52-2.44.6-4.99.71-7.6z"/><path fill="#6F4A80" d="M110.03 104.2c.21-4.77.37-9.54.69-14.3.64-.07 1.29-.14 1.94-.25 11.1-1.87 19.57-10.21 22.36-20.65.63 2.4.98 4.92.98 7.53 0 15.13-11.48 27.5-26 28.47l.03-.8"/><path fill="none" stroke="#4B3663" stroke-linecap="round" stroke-linejoin="round" stroke-width="2" d="M110.03 104.2c.21-4.77.37-9.54.69-14.3.64-.07 1.29-.14 1.94-.25 11.1-1.87 19.57-10.21 22.36-20.65.63 2.4.98 4.92.98 7.53 0 15.13-11.48 27.5-26 28.47l.03-.8zm.3-7.12c2.87-.32 5.67-1.1 8.29-2.3 10.27-4.68 16.4-14.96 16.52-25.78"/><path fill="#6F4A80" d="M37.29 104.36c-.11-2.38-.2-4.77-.32-7.15-3-.32-5.93-1.1-8.7-2.3A28.66 28.66 0 0 1 10.92 69a28.1 28.1 0 0 0-2.96 7.06c-4.1 15.31 5.25 30.99 20.88 35a29.6 29.6 0 0 0 9.16.9c-.52-2.44-.6-4.99-.71-7.6"/><path fill="none" stroke="#4B3663" stroke-linecap="round" stroke-linejoin="round" stroke-width="2" d="M37.29 104.36c-.11-2.38-.2-4.77-.32-7.15-3-.32-5.93-1.1-8.7-2.3A28.66 28.66 0 0 1 10.92 69a28.1 28.1 0 0 0-2.96 7.06c-4.1 15.31 5.25 30.99 20.88 35a29.6 29.6 0 0 0 9.16.9c-.52-2.44-.6-4.99-.71-7.6z"/><path fill="#6F4A80" d="M35.97 104.2c-.22-4.77-.37-9.54-.69-14.3-.64-.07-1.29-.14-1.94-.25C22.24 87.78 13.77 79.44 10.98 69a29.6 29.6 0 0 0-.98 7.53c0 15.13 11.48 27.5 26 28.47l-.03-.8"/><path fill="none" stroke="#4B3663" stroke-linecap="round" stroke-linejoin="round" stroke-width="2" d="M35.97 104.2c-.22-4.77-.37-9.54-.69-14.3-.64-.07-1.29-.14-1.94-.25C22.24 87.78 13.77 79.44 10.98 69a29.6 29.6 0 0 0-.98 7.53c0 15.13 11.48 27.5 26 28.47l-.03-.8zm-.3-7.12a27.25 27.25 0 0 1-8.29-2.3C17.11 90.1 10.98 79.82 10.86 69"/><path fill="#FBD063" d="M58 41h30V20H58v21z"/><path fill="none" stroke="#4B3663" stroke-linecap="round" stroke-linejoin="round" stroke-width="2" d="M58 41h30V20H58v21z"/><path fill="#9E709F" d="M36 108h74V61H36v47zm11.75-55.25L40.5 60 30 35l25 10.5-7.25 7.25"/><path fill="none" stroke="#4B3663" stroke-linecap="round" stroke-linejoin="round" stroke-width="2" d="M47.75 52.75L40.5 60 30 35l25 10.5-7.25 7.25z"/><path fill="#9E709F" d="M98.25 52.75L105.5 60 116 35 91 45.5l7.25 7.25"/><path fill="none" stroke="#4B3663" stroke-linecap="round" stroke-linejoin="round" stroke-width="2" d="M98.25 52.75L105.5 60 116 35 91 45.5l7.25 7.25z"/><path fill="#9E709F" d="M107 67.14c0 9.43-34.5-7.48-34.5-7.48S38 76.56 38 67.14C38 48.3 53.45 33 72.5 33S107 48.29 107 67.14"/><path fill="none" stroke="#4B3663" stroke-linecap="round" stroke-linejoin="round" stroke-width="2" d="M107 67.14c0 9.43-34.5-7.48-34.5-7.48S38 76.56 38 67.14C38 48.3 53.45 33 72.5 33S107 48.29 107 67.14z"/><path fill="#FBD063" d="M80 74.68L73.5 81 67 74.68 73.5 68l6.5 6.68"/><path fill="none" stroke="#4B3663" stroke-linecap="round" stroke-linejoin="round" stroke-width="2" d="M80 74.68L73.5 81 67 74.68 73.5 68l6.5 6.68z"/><path fill="#FFFFFE" d="M90.93 39a20.16 20.16 0 0 0-17.43 9.84A20.16 20.16 0 0 0 56.07 39C44.99 39 36 47.73 36 58.5S44.99 78 56.07 78c7.46 0 13.97-3.96 17.43-9.84A20.16 20.16 0 0 0 90.93 78C102.01 78 111 69.27 111 58.5S102.01 39 90.93 39"/><path fill="none" stroke="#4B3663" stroke-linejoin="round" stroke-width="2" d="M90.93 39a20.16 20.16 0 0 0-17.43 9.84A20.16 20.16 0 0 0 56.07 39C44.99 39 36 47.73 36 58.5S44.99 78 56.07 78c7.46 0 13.97-3.96 17.43-9.84A20.16 20.16 0 0 0 90.93 78C102.01 78 111 69.27 111 58.5S102.01 39 90.93 39z"/><path fill="#4F3969" d="M57 57.5a2.5 2.5 0 1 1-5 0 2.5 2.5 0 0 1 5 0m36 0a2.5 2.5 0 1 1-5 0 2.5 2.5 0 0 1 5 0"/><path fill="none" stroke="#4B3663" stroke-linecap="round" stroke-linejoin="round" stroke-width="2" d="M36 58v30"/><path fill="none" stroke="#4B3663" stroke-width="2" d="M111 58v30"/><path fill="none" stroke="#4B3663" stroke-linecap="round" stroke-linejoin="round" stroke-width="2" d="M0 120c9.14 0 16.55 7.18 16.55 16.05v7.93M5.53 127.93c6.12 0 11.07 4.8 11.07 10.73v5.3m122.92.02H5.95m11.65-5.6l11.56-4.1M146 120c-9.14 0-16.55 7.18-16.55 16.05v7.93m11.02-16.05c-6.12 0-11.08 4.8-11.08 10.73v5.3m-.99-5.59l-11.56-4.08"/><path fill="#FCD672" d="M99 35h-8l4-9 4 9"/><path fill="none" stroke="#4B3663" stroke-linecap="round" stroke-linejoin="round" stroke-width="2" d="M99 35h-8l4-9 4 9z"/><path fill="#A3D4C7" d="M113.31 144H33.7a3.67 3.67 0 0 1-3.69-3.65V90.66A3.68 3.68 0 0 1 33.69 87h79.62a3.68 3.68 0 0 1 3.69 3.66v49.68a3.67 3.67 0 0 1-3.68 3.66"/><path fill="none" stroke="#4F3969" stroke-width="2" d="M113.31 144H33.7a3.67 3.67 0 0 1-3.69-3.65V90.66A3.68 3.68 0 0 1 33.69 87h79.62a3.68 3.68 0 0 1 3.69 3.66v49.68a3.67 3.67 0 0 1-3.68 3.66z"/><path fill="#FBD063" d="M95 17.5L72.5 27 50 17.5 72.5 8 95 17.5"/><path fill="none" stroke="#4B3663" stroke-linecap="round" stroke-linejoin="round" stroke-width="2" d="M95 17.5L72.5 27 50 17.5 72.5 8 95 17.5zm0 0v9.14-9.14z"/><circle cx="72" cy="116" r="7" fill="#7EB2A4"/></g></svg>