<svg xmlns="http://www.w3.org/2000/svg" width="198" height="179" viewBox="0 0 198 179"><g fill="none" fill-rule="evenodd"><path fill="#5EB17A" d="M181.202 82.96c-1.162 1.81-2.337 3.61-3.502 5.42a25.757 25.757 0 0 1 5.064 6.13c5.317 8.97 4.574 19.85-1.001 27.89a25.62 25.62 0 0 0 5.805-3.67c10.931-9.16 12.369-25.44 3.211-36.37-1.8-2.15-3.88-3.93-6.136-5.33-.89 2.04-2.17 3.96-3.441 5.93"/><path stroke="#0C827C" stroke-linecap="round" stroke-linejoin="round" stroke-width="2" d="M181.202 82.96c-1.162 1.81-2.337 3.61-3.502 5.42a25.757 25.757 0 0 1 5.064 6.13c5.317 8.97 4.574 19.85-1.001 27.89a25.62 25.62 0 0 0 5.805-3.67c10.931-9.16 12.369-25.44 3.211-36.37-1.8-2.15-3.88-3.93-6.136-5.33-.89 2.04-2.17 3.96-3.441 5.93zm.467 39.38a25.748 25.748 0 0 0 4.686-5.03c7.92-11.16 5.712-26.45-4.76-34.96-.131.21-.262.41-.393.61l.467 39.38z"/><path fill="#4BB6D4" d="M69.266 160.56h7.013V60.07h-7.013z"/><path stroke="#0C827C" stroke-linecap="round" stroke-linejoin="round" stroke-width="2" d="M69.266 160.56h7.013V60.07h-7.013z"/><path fill="#4BB6D4" d="M37.804 161.39h69.937v-7.01H37.804z"/><path stroke="#0C827C" stroke-linecap="round" stroke-linejoin="round" stroke-width="2" d="M37.804 161.39h69.937v-7.01H37.804z"/><path fill="#A4D8E5" d="M1.241 111.16h143.063V10.67H1.241z"/><path stroke="#0C827C" stroke-linecap="round" stroke-linejoin="round" stroke-width="2" d="M1.241 111.16h143.063V10.67H1.241v100.49zm117.781 66.31c0-8.95 7.254-16.2 16.203-16.2h8.015l-24.218 16.2zm8.005-5.42c0-5.98 4.854-10.84 10.841-10.84h5.362l-16.203 10.84zm15.616 5.42c0-8.95 7.254-16.2 16.203-16.2h8.015l-24.218 16.2zm8.006-5.42c0-5.98 4.853-10.84 10.84-10.84h5.363l-16.203 10.84z"/><path fill="#4BB6D4" d="M136.283 33.39h28.038V13.34h-28.038z"/><path stroke="#0C827C" stroke-linecap="round" stroke-linejoin="round" stroke-width="2" d="M136.283 33.39h28.038V13.34h-28.038z"/><path fill="#4BB6D4" d="M174.572 26.48h-7.493l3.746-8.74 3.747 8.74"/><path stroke="#0C827C" stroke-linecap="round" stroke-linejoin="round" stroke-width="2" d="M174.572 26.48h-7.493l3.746-8.74z"/><path fill="#4BB6D4" d="M170.989 10.73l-21.242 8.97-21.244-8.97 21.244-8.98 21.242 8.98"/><path stroke="#0C827C" stroke-linecap="round" stroke-linejoin="round" stroke-width="2" d="M170.989 10.73l-21.242 8.97-21.244-8.97 21.244-8.98z"/><path fill="#A3D3B4" d="M170.989 10.73v8.63"/><path stroke="#0C827C" stroke-linecap="round" stroke-linejoin="round" stroke-width="2" d="M170.989 10.73v8.63"/><path fill="#5EB17A" d="M126.637 94.91c-1.358-2.13-2.706-4.27-4.065-6.41a30.519 30.519 0 0 1-9.054 2.4c-12.208 1.27-23.472-4.88-29.327-14.8-.001 2.64.339 5.33 1.068 8.01 4.41 16.2 21.114 25.75 37.308 21.34a30.441 30.441 0 0 0 8.723-3.94c-1.748-1.95-3.167-4.27-4.653-6.6"/><path stroke="#0C827C" stroke-linecap="round" stroke-linejoin="round" stroke-width="2" d="M126.637 94.91c-1.358-2.13-2.706-4.27-4.065-6.41a30.519 30.519 0 0 1-9.054 2.4c-12.208 1.27-23.472-4.88-29.327-14.8-.001 2.64.339 5.33 1.068 8.01 4.41 16.2 21.114 25.75 37.308 21.34a30.441 30.441 0 0 0 8.723-3.94c-1.748-1.95-3.167-4.27-4.653-6.6z"/><path fill="#5EB17A" d="M126.637 94.91c-2.729-4.28-5.413-8.6-8.241-12.83-.644.3-1.296.58-1.969.83-11.487 4.32-23.94 1.23-32.119-6.88.67 2.56 1.68 5.08 3.064 7.48 8.035 13.96 25.471 19.13 39.723 12.12-.152-.24-.304-.48-.458-.72"/><path stroke="#0C827C" stroke-linecap="round" stroke-linejoin="round" stroke-width="2" d="M126.637 94.91c-2.729-4.28-5.413-8.6-8.241-12.83-.644.3-1.296.58-1.969.83-11.487 4.32-23.94 1.23-32.119-6.88.67 2.56 1.68 5.08 3.064 7.48 8.035 13.96 25.471 19.13 39.723 12.12-.152-.24-.304-.48-.458-.72zm-4.065-6.41a30.519 30.519 0 0 1-9.054 2.4c-12.208 1.27-23.472-4.88-29.327-14.8l38.381 12.4z"/><path fill="#5EB17A" d="M155.803 132.7l4.685 28.25h3.345l2.59-29.24"/><path stroke="#0C827C" stroke-linecap="round" stroke-linejoin="round" stroke-width="2" d="M155.803 132.7l4.685 28.25h3.345l2.59-29.24"/><path fill="#5EB17A" d="M132.182 132.7l4.685 28.25h3.344l2.591-29.24"/><path stroke="#0C827C" stroke-linecap="round" stroke-linejoin="round" stroke-width="2" d="M132.182 132.7l4.685 28.25h3.344l2.591-29.24"/><path fill="#8DC46A" d="M163.225 134.41h-25.213c-13.06 0-23.647-10.58-23.647-23.64v-58.7h72.507v58.7c0 13.06-10.587 23.64-23.647 23.64m-38.579-85.66H114.4V23.67l20.492 25.08h-10.246"/><path stroke="#0C827C" stroke-linecap="round" stroke-linejoin="round" stroke-width="2" d="M124.646 48.75H114.4V23.67l20.492 25.08z"/><path fill="#8DC46A" d="M176.572 48.75h10.245V23.67l-20.491 25.08h10.246"/><path stroke="#0C827C" stroke-linecap="round" stroke-linejoin="round" stroke-width="2" d="M176.572 48.75h10.245V23.67l-20.491 25.08z"/><path fill="#8DC46A" d="M184.187 58.38c0 9.32-33.739-7.39-33.739-7.39s-33.739 16.71-33.739 7.39c0-18.63 15.105-33.74 33.739-33.74 18.634 0 33.739 15.11 33.739 33.74"/><path stroke="#0C827C" stroke-linecap="round" stroke-linejoin="round" stroke-width="2" d="M184.187 58.38c0 9.32-33.739-7.39-33.739-7.39s-33.739 16.71-33.739 7.39c0-18.63 15.105-33.74 33.739-33.74 18.634 0 33.739 15.11 33.739 33.74z"/><path fill="#F5BB42" d="M156.779 68.78l-6.331 6.34-6.331-6.34 6.331-6.69 6.331 6.69"/><path stroke="#0C827C" stroke-linecap="round" stroke-linejoin="round" stroke-width="2" d="M156.779 68.78l-6.331 6.34-6.331-6.34 6.331-6.69z"/><path fill="#FFFFFE" d="M167.341 33.01c-7.235 0-13.543 3.95-16.893 9.81-3.35-5.86-9.658-9.81-16.894-9.81-10.741 0-19.449 8.7-19.449 19.45 0 10.74 8.708 19.45 19.449 19.45 7.236 0 13.544-3.96 16.894-9.82 3.35 5.86 9.658 9.82 16.893 9.82 10.742 0 19.45-8.71 19.45-19.45 0-10.75-8.708-19.45-19.45-19.45"/><path stroke="#0C827C" stroke-linecap="round" stroke-linejoin="round" stroke-width="2" d="M167.341 33.01c-7.235 0-13.543 3.95-16.893 9.81-3.35-5.86-9.658-9.81-16.894-9.81-10.741 0-19.449 8.7-19.449 19.45 0 10.74 8.708 19.45 19.449 19.45 7.236 0 13.544-3.96 16.894-9.82 3.35 5.86 9.658 9.82 16.893 9.82 10.742 0 19.45-8.71 19.45-19.45 0-10.75-8.708-19.45-19.45-19.45z"/><path fill="#0C827C" d="M129.012 52.38a2.684 2.684 0 1 1-5.366 0c0-1.48 1.201-2.68 2.683-2.68 1.482 0 2.683 1.2 2.683 2.68m35.264 0a2.684 2.684 0 1 1-5.365 0c0-1.48 1.201-2.68 2.682-2.68 1.482 0 2.683 1.2 2.683 2.68"/><path stroke="#0C827C" stroke-linecap="round" stroke-linejoin="round" stroke-width="2" d="M186.962 48.8v62.08c0 12.64-10.24 22.88-22.872 22.88h-26.943c-12.631 0-22.872-10.24-22.872-22.88V48.8"/><path fill="#C4D97C" d="M136.898 132.67c-11.992 0-21.714-9.72-21.714-21.71V92.82h31.629c10.666 0 19.313 8.64 19.313 19.31v20.54h-29.228"/><path fill="#B7DDD5" d="M44.426 13.56h56.693V7.89H44.426z"/><path stroke="#0C827C" stroke-linecap="round" stroke-linejoin="round" stroke-width="2" d="M44.426 13.56h56.693V7.89H44.426z"/><path fill="#4BB6D4" d="M107.358 53.87l3.216-18.99L91.59 38.1l5.041 5.04-26.424 26.43-12.058-12.06h.002l-5.685-5.69h-.003l-5.686 5.69h.002L16.56 87.73l5.685 5.68 30.219-30.22 12.058 12.06-.008.01 5.686 5.68h.007l.012.01 5.685-5.69-.011-.01 26.424-26.42 5.041 5.04"/><path stroke="#0C827C" stroke-linecap="round" stroke-linejoin="round" stroke-width="2" d="M107.358 53.87l3.216-18.99L91.59 38.1l5.041 5.04-26.424 26.43-12.058-12.06h.002l-5.685-5.69h-.003l-5.686 5.69h.002L16.56 87.73l5.685 5.68 30.219-30.22 12.058 12.06-.008.01 5.686 5.68h.007l.012.01 5.685-5.69-.011-.01 26.424-26.42z"/></g></svg>