<svg xmlns="http://www.w3.org/2000/svg" width="156" height="181" viewBox="0 0 156 181"><g fill="none" fill-rule="evenodd"><path fill="#A3D3B4" d="M1.322 33.16l44.827 66.51 5.378-4.17L1.322 33.16"/><path stroke="#008060" stroke-linecap="round" stroke-linejoin="round" stroke-width="2" d="M1.322 33.16l44.827 66.51 5.378-4.17L1.322 33.16zm67.685 146.12c0-8.95 7.255-16.2 16.203-16.2h8.016l-24.219 16.2zm8.006-5.42c0-5.99 4.854-10.84 10.841-10.84h5.362l-16.203 10.84zm22.719 5.42c0-8.95 7.254-16.2 16.203-16.2h8.015l-24.218 16.2zm8.006-5.42c0-5.99 4.853-10.84 10.84-10.84h5.362l-16.202 10.84z"/><path fill="#009D90" d="M86.269 33.2h28.038V13.15H86.269z"/><path stroke="#008060" stroke-linecap="round" stroke-linejoin="round" stroke-width="2" d="M86.269 33.2h28.038V13.15H86.269z"/><path fill="#009D90" d="M124.557 26.29h-7.493l3.747-8.74 3.746 8.74"/><path stroke="#008060" stroke-linecap="round" stroke-linejoin="round" stroke-width="2" d="M124.557 26.29h-7.493l3.747-8.74z"/><path fill="#009D90" d="M120.975 10.54l-21.243 8.97-21.243-8.97 21.243-8.98 21.243 8.98"/><path stroke="#008060" stroke-linecap="round" stroke-linejoin="round" stroke-width="2" d="M120.975 10.54l-21.243 8.97-21.243-8.97 21.243-8.98z"/><path fill="#A3D3B4" d="M120.975 10.54v8.63"/><path stroke="#008060" stroke-linecap="round" stroke-linejoin="round" stroke-width="2" d="M120.975 10.54v8.63"/><path fill="#2BAB6E" d="M75.513 82.87c-1.867-1.71-3.725-3.43-5.593-5.13a30.59 30.59 0 0 1-8.12 4.66c-11.457 4.41-23.932 1.4-32.167-6.65a30.573 30.573 0 0 0 3.117 7.46c8.472 14.48 27.085 19.36 41.575 10.89a30.477 30.477 0 0 0 7.398-6.07c-2.198-1.43-4.169-3.3-6.21-5.16"/><path stroke="#008060" stroke-linecap="round" stroke-linejoin="round" stroke-width="2" d="M75.513 82.87c-1.867-1.71-3.725-3.43-5.593-5.13a30.59 30.59 0 0 1-8.12 4.66c-11.457 4.41-23.932 1.4-32.167-6.65a30.573 30.573 0 0 0 3.117 7.46c8.472 14.48 27.085 19.36 41.575 10.89a30.477 30.477 0 0 0 7.398-6.07c-2.198-1.43-4.169-3.3-6.21-5.16z"/><path fill="#2BAB6E" d="M75.513 82.87c-3.75-3.43-7.467-6.9-11.296-10.25-.545.46-1.102.9-1.685 1.32-9.967 7.16-22.796 7.42-32.804 1.71a30.61 30.61 0 0 0 4.906 6.43c11.391 11.39 29.571 11.84 41.509 1.36l-.63-.57"/><path stroke="#008060" stroke-linecap="round" stroke-linejoin="round" stroke-width="2" d="M75.513 82.87c-3.75-3.43-7.467-6.9-11.296-10.25-.545.46-1.102.9-1.685 1.32-9.967 7.16-22.796 7.42-32.804 1.71a30.61 30.61 0 0 0 4.906 6.43c11.391 11.39 29.571 11.84 41.509 1.36l-.63-.57zm-5.593-5.13a30.59 30.59 0 0 1-8.12 4.66c-11.457 4.41-23.932 1.4-32.167-6.65l40.287 1.99z"/><path fill="#009362" d="M112.893 134.51l4.684 28.25h3.345l2.59-29.24"/><path stroke="#008060" stroke-linecap="round" stroke-linejoin="round" stroke-width="2" d="M112.893 134.51l4.684 28.25h3.345l2.59-29.24"/><path fill="#009362" d="M82.168 134.51l4.685 28.25h3.344l2.591-29.24"/><path stroke="#008060" stroke-linecap="round" stroke-linejoin="round" stroke-width="2" d="M82.168 134.51l4.685 28.25h3.344l2.591-29.24"/><path fill="#2BAB6E" d="M122.918 134.22H86.754c-12.373 0-22.403-10.03-22.403-22.4V60.69a8.81 8.81 0 0 1 8.814-8.81h54.878c4.868 0 8.815 3.94 8.815 8.81v59.59c0 7.7-6.241 13.94-13.94 13.94"/><path fill="#54B581" d="M75.584 44.89l-7.245 7.24-10.486-24.98 12.488 5.25 12.488 5.24-7.245 7.25"/><path stroke="#008060" stroke-linecap="round" stroke-linejoin="round" stroke-width="2" d="M75.584 44.89l-7.245 7.24-10.486-24.98 12.488 5.25 12.488 5.24z"/><path fill="#54B581" d="M124.998 44.89l7.245 7.24 10.487-24.98-12.489 5.25-12.488 5.24 7.245 7.25"/><path stroke="#008060" stroke-linecap="round" stroke-linejoin="round" stroke-width="2" d="M124.998 44.89l7.245 7.24 10.487-24.98-12.489 5.25-12.488 5.24z"/><path fill="#A3D3B4" d="M134.173 58.19c0 9.32-33.739-7.4-33.739-7.4s-33.74 16.72-33.74 7.4c0-18.63 15.106-33.74 33.74-33.74 18.633 0 33.739 15.11 33.739 33.74"/><path stroke="#008060" stroke-width="2" d="M134.173 58.19c0 9.32-33.739-7.4-33.739-7.4s-33.74 16.72-33.74 7.4c0-18.63 15.106-33.74 33.74-33.74 18.633 0 33.739 15.11 33.739 33.74z"/><path fill="#F6EB3D" d="M106.764 65.59l-6.33 6.34-6.331-6.34 6.331-6.69 6.33 6.69"/><path stroke="#008060" stroke-linecap="round" stroke-linejoin="round" stroke-width="2" d="M106.764 65.59l-6.33 6.34-6.331-6.34 6.331-6.69z"/><path fill="#FFFFFE" d="M117.327 29.81c-7.235 0-13.543 3.96-16.893 9.82-3.351-5.86-9.659-9.82-16.894-9.82-10.742 0-19.45 8.71-19.45 19.46 0 10.74 8.708 19.44 19.45 19.44 7.235 0 13.543-3.95 16.894-9.81 3.35 5.86 9.658 9.81 16.893 9.81 10.742 0 19.45-8.7 19.45-19.44 0-10.75-8.708-19.46-19.45-19.46"/><path stroke="#008060" stroke-linecap="round" stroke-linejoin="round" stroke-width="2" d="M117.327 29.81c-7.235 0-13.543 3.96-16.893 9.82-3.351-5.86-9.659-9.82-16.894-9.82-10.742 0-19.45 8.71-19.45 19.46 0 10.74 8.708 19.44 19.45 19.44 7.235 0 13.543-3.95 16.894-9.81 3.35 5.86 9.658 9.81 16.893 9.81 10.742 0 19.45-8.7 19.45-19.44 0-10.75-8.708-19.46-19.45-19.46z"/><path fill="#008060" d="M80.997 44.19a2.684 2.684 0 1 1-5.365 0c0-1.48 1.201-2.68 2.682-2.68 1.482 0 2.683 1.2 2.683 2.68m35.265 0a2.684 2.684 0 1 1-5.365 0c0-1.48 1.201-2.68 2.682-2.68 1.482 0 2.683 1.2 2.683 2.68"/><path stroke="#008060" stroke-linecap="round" stroke-linejoin="round" stroke-width="2" d="M136.947 48.61v77.46c0 4.14-3.353 7.49-7.49 7.49H85.33c-11.636 0-21.069-9.43-21.069-21.06V48.61"/><path fill="#DDDC55" d="M65.271 112.69c0-11.19 9.154-20.34 20.343-20.34h17.352c11.189 0 20.343 9.15 20.343 20.34v17.35c0 1.43-1.152 2.58-2.574 2.58H85.198c-11.006 0-19.927-8.92-19.927-19.93"/><path fill="#FFFFFE" d="M96.371 137.39h13.766v-35.93H96.371z"/><path stroke="#008060" stroke-linecap="round" stroke-linejoin="round" stroke-width="2" d="M96.371 137.39h13.766v-35.93H96.371v35.93zm0-37.72v37.72h49.219L96.371 99.67z"/><path fill="#009D90" d="M105.67 137.39h49.22V99.67h-49.22z"/><path stroke="#008060" stroke-linecap="round" stroke-linejoin="round" stroke-width="2" d="M105.67 137.39h49.22V99.67h-49.22z"/><path fill="#2BAB6E" d="M133.187 81.77c-1.162 1.81-2.336 3.61-3.501 5.42a25.754 25.754 0 0 1 5.063 6.13c5.317 8.97 4.575 19.85-1 27.89a25.593 25.593 0 0 0 5.804-3.67c10.931-9.16 12.369-25.44 3.212-36.37a25.611 25.611 0 0 0-6.137-5.33c-.889 2.04-2.169 3.96-3.441 5.93"/></g></svg>